# xmcd
# 
# Track frame offsets:
#     150
#     21445
#     41170
#     65105
#     100319
#     129701
#     140131
#     157168
#     172363
#     191227
#     213508
#     232095
#     253808
#     275229
# 
# Disc length: 3985
# 
# Revision: 1
# Processed by: cddbd v1.5.2PL0 Copyright (c) Steve Scherf et al.
# Submitted via: fre:ac v1.1beta1pre3
# 
DISCID=f70f8f0e
DTITLE=Omar Shariff - Black Widow Spider
DYEAR=2000
DGENRE=Blues
TTITLE0=Let's Get It On
TTITLE1=Knowing That We Found Love
TTITLE2=Fillmore and Haight
TTITLE3=Seven Years of Torture
TTITLE4=Blue Monday
TTITLE5=Fingers of Fire
TTITLE6=You're a Fool
TTITLE7=Burn Baby Burn
TTITLE8=Greenbacks
TTITLE9=My Favorite Things
TTITLE10=Smack Dab in the Middle
TTITLE11=Oh Dear What Can the Matter Be
TTITLE12=All Along the Watchtower (Dylan)
TTITLE13=Schematic of a Woman #2
EXTD=YEAR: 2000
EXTT0=
EXTT1=
EXTT2=
EXTT3=
EXTT4=
EXTT5=
EXTT6=
EXTT7=
EXTT8=
EXTT9=
EXTT10=
EXTT11=
EXTT12=
EXTT13=
PLAYORDER=
